<?xml version="1.0" standalone="no"?>
<!DOCTYPE svg PUBLIC "-//W3C//DTD SVG 20010904//EN"
 "http://www.w3.org/TR/2001/REC-SVG-20010904/DTD/svg10.dtd">
<svg version="1.0" xmlns="http://www.w3.org/2000/svg"
 width="500.000000pt" height="139.000000pt" viewBox="0 0 500.000000 139.000000"
 preserveAspectRatio="xMidYMid meet">

<g transform="translate(0.000000,139.000000) scale(0.100000,-0.100000)"
fill="#000000" stroke="none">
<path d="M1385 1140 c-55 -55 -107 -100 -117 -100 -9 0 -30 -11 -45 -24 l-28
-25 33 -33 33 -33 25 28 c13 15 24 38 24 50 0 15 33 56 100 122 55 55 100 103
100 107 0 24 -36 -3 -125 -92z"/>
<path d="M2182 1184 c-19 -13 -22 -24 -22 -89 0 -67 2 -75 26 -94 l26 -21 -26
-31 -26 -31 0 -320 c0 -434 -17 -411 300 -416 269 -5 305 0 347 45 l33 34 0
328 c0 327 0 328 -23 363 l-24 34 24 17 c20 16 23 26 23 91 0 112 19 106 -336
106 -255 0 -303 -2 -322 -16z m108 -89 l0 -85 -43 0 c-24 0 -48 5 -55 12 -7 7
-12 39 -12 73 0 34 5 66 12 73 7 7 31 12 55 12 l43 0 0 -85z m130 0 l0 -85
-55 0 -55 0 0 85 0 85 55 0 55 0 0 -85z m140 0 l0 -85 -60 0 -60 0 0 85 0 85
60 0 60 0 0 -85z m130 0 l0 -85 -55 0 -55 0 0 85 0 85 55 0 55 0 0 -85z m126
60 c20 -30 15 -122 -7 -136 -8 -5 -31 -9 -51 -9 l-38 0 0 85 0 85 40 0 c31 0
43 -5 56 -25z m-39 -193 c21 -15 36 -37 43 -63 22 -79 43 -74 -318 -77 l-322
-2 0 43 c0 35 9 60 36 95 1 2 20 10 41 18 29 11 90 13 263 11 217 -2 226 -3
257 -25z m53 -367 l0 -205 -325 0 -325 0 0 205 0 205 325 0 325 0 0 -205z m-7
-273 c-2 -55 -25 -90 -68 -108 -51 -21 -464 -20 -509 1 -41 20 -66 63 -66 114
l0 41 323 -2 322 -3 -2 -43z"/>
<path d="M2332 727 c-14 -15 -22 -36 -22 -58 0 -34 15 -135 26 -172 6 -21 60
-51 80 -43 7 3 16 1 19 -4 10 -15 59 -12 136 10 90 24 115 41 124 80 8 35 -11
72 -46 91 -19 10 -89 -2 -154 -28 -8 -2 -16 18 -24 53 -6 32 -18 66 -28 76
-24 27 -84 24 -111 -5z m102 -19 c9 -12 16 -37 16 -55 0 -30 -2 -32 -45 -39
-25 -3 -52 -4 -60 0 -20 7 -20 80 1 100 23 24 70 20 88 -6z m233 -125 c27 -42
-4 -83 -73 -95 -14 -2 -22 9 -35 52 l-17 55 37 11 c45 14 68 8 88 -23z m-239
-13 c-23 -24 -29 -37 -26 -60 9 -59 -44 -23 -55 37 -6 30 -4 33 21 39 15 3 32
7 37 9 6 2 20 4 32 4 20 1 19 -1 -9 -29z m111 -38 c8 -29 11 -55 8 -58 -3 -4
-26 -9 -50 -11 -40 -5 -47 -3 -62 21 -25 38 -13 70 32 89 21 9 43 15 48 13 6
-1 16 -26 24 -54z"/>
<path d="M3917 1189 c-74 -17 -152 -62 -213 -124 -123 -122 -168 -277 -129
-443 37 -158 155 -286 309 -334 82 -26 210 -26 292 0 231 73 370 323 309 557
-44 166 -172 299 -330 339 -64 17 -177 19 -238 5z m305 -61 c217 -108 308
-365 205 -581 -108 -228 -382 -321 -600 -204 -268 142 -318 504 -99 709 94 89
178 119 318 115 94 -2 106 -5 176 -39z"/>
<path d="M4005 1070 c-12 -23 -22 -30 -45 -30 -39 0 -44 -13 -15 -40 21 -20
24 -29 19 -62 -7 -41 -2 -45 36 -24 21 12 29 12 52 0 44 -23 51 -18 44 24 -5
33 -2 42 19 62 29 27 24 40 -15 40 -23 0 -33 7 -45 30 -9 17 -20 30 -25 30 -5
0 -16 -13 -25 -30z m50 -44 c17 -16 22 -27 15 -31 -7 -4 -9 -18 -5 -32 5 -22
4 -23 -15 -13 -13 7 -26 7 -39 1 -15 -9 -17 -7 -14 13 3 13 0 27 -7 31 -7 5
-4 14 12 30 13 13 24 23 25 24 1 1 14 -10 28 -23z"/>
<path d="M4250 960 c0 -19 -40 -50 -65 -50 -30 0 -33 -20 -5 -45 13 -12 20
-31 20 -57 0 -43 2 -44 35 -22 21 14 26 14 54 0 41 -22 41 -21 41 22 0 26 7
45 20 57 28 25 25 45 -5 45 -25 0 -65 31 -65 50 0 6 -7 10 -15 10 -8 0 -15 -4
-15 -10z m54 -70 c18 0 22 -15 6 -25 -5 -3 -10 -14 -10 -24 0 -13 -8 -17 -35
-17 -27 0 -35 4 -35 17 0 10 -4 21 -10 24 -17 10 -11 25 9 25 10 0 22 8 26 18
6 16 7 16 19 0 7 -10 21 -18 30 -18z"/>
<path d="M3795 930 c-11 -21 -23 -30 -40 -30 -34 0 -40 -18 -15 -45 17 -18 20
-30 15 -53 -8 -38 6 -47 42 -28 24 12 32 12 53 0 37 -20 42 -17 39 19 -2 23 4
43 19 62 25 31 17 45 -25 45 -15 0 -28 10 -38 30 -9 17 -20 30 -25 30 -5 0
-16 -13 -25 -30z m62 -51 c22 -8 23 -11 12 -26 -8 -9 -13 -25 -11 -35 3 -17 1
-18 -17 -9 -11 6 -27 8 -35 5 -11 -4 -16 0 -16 13 0 10 -5 24 -12 31 -9 9 -7
13 8 18 10 4 23 14 28 23 7 12 11 12 14 3 2 -7 15 -18 29 -23z"/>
<path d="M4017 812 c-10 -10 -17 -24 -17 -31 0 -26 -32 -73 -63 -91 -39 -24
-97 -27 -97 -5 0 12 -13 15 -60 15 l-60 0 0 -125 0 -125 54 0 c30 0 58 5 61
10 10 16 48 12 97 -10 24 -10 81 -22 126 -26 92 -8 112 1 112 47 0 15 4 30 9
33 14 9 8 171 -8 189 -8 10 -28 17 -47 17 -34 0 -34 1 -34 44 0 67 -38 97 -73
58z m43 -66 c0 -23 -5 -47 -12 -54 -7 -7 -13 -47 -14 -100 -2 -140 -14 -152
-103 -112 -24 11 -54 20 -67 20 -23 0 -24 3 -24 69 l0 68 44 5 c61 7 104 41
133 105 28 61 43 61 43 -1z m95 -86 c0 -10 -12 -16 -39 -18 -44 -4 -70 13 -46
29 23 14 85 7 85 -11z m-347 -82 l-3 -93 -32 -3 -33 -3 0 95 0 96 35 0 36 0
-3 -92z m352 17 c0 -11 -12 -15 -44 -15 -43 0 -63 10 -49 24 3 3 26 6 50 6 32
0 43 -4 43 -15z m0 -60 c0 -11 -12 -15 -50 -15 -46 0 -60 7 -43 23 3 4 26 7
50 7 32 0 43 -4 43 -15z m-21 -58 c16 -20 4 -27 -46 -27 -41 0 -56 14 -36 33
12 12 70 7 82 -6z"/>
<path d="M1102 968 l-21 -23 26 -30 c31 -36 13 -48 -23 -14 -23 22 -24 22 -44
4 -25 -23 -25 -33 2 -62 32 -34 12 -41 -23 -7 l-30 29 -19 -25 c-18 -23 -18
-24 6 -56 32 -41 14 -56 -21 -18 l-25 27 -25 -23 -25 -24 27 -28 c35 -36 21
-50 -15 -15 l-28 27 -24 -25 -24 -25 28 -29 c35 -36 18 -50 -21 -17 l-28 25
-52 -52 -53 -51 -25 24 c-19 18 -28 21 -37 12 -9 -9 17 -41 110 -134 96 -97
124 -120 134 -110 9 9 6 18 -15 40 l-27 28 215 214 c140 140 215 222 215 235
0 24 -98 125 -121 125 -9 0 -25 -10 -37 -22z"/>
<path d="M633 408 l-52 -52 -31 29 c-23 23 -33 26 -42 17 -10 -10 5 -30 67
-92 75 -76 105 -95 105 -68 0 6 -10 22 -21 34 l-22 23 52 57 51 58 -22 23
c-12 13 -24 23 -27 23 -4 0 -30 -23 -58 -52z"/>
</g>
</svg>
