<?xml version="1.0" standalone="no"?>
<!DOCTYPE svg PUBLIC "-//W3C//DTD SVG 20010904//EN"
 "http://www.w3.org/TR/2001/REC-SVG-20010904/DTD/svg10.dtd">
<svg version="1.0" xmlns="http://www.w3.org/2000/svg"
 width="500.000000pt" height="217.000000pt" viewBox="0 0 500.000000 217.000000"
 preserveAspectRatio="xMidYMid meet">

<g transform="translate(0.000000,217.000000) scale(0.100000,-0.100000)"
fill="#000000" stroke="none">
<path d="M2362 2088 c-7 -7 -12 -41 -12 -83 0 -76 9 -95 46 -95 28 0 34 17 34
99 0 68 -10 91 -40 91 -9 0 -21 -5 -28 -12z"/>
<path d="M2110 2015 c-17 -20 -7 -51 36 -108 29 -40 40 -48 62 -45 42 5 40 38
-8 108 -42 61 -66 74 -90 45z"/>
<path d="M2580 1969 c-46 -71 -48 -82 -19 -103 30 -21 42 -13 84 55 43 69 44
102 3 107 -24 3 -33 -5 -68 -59z"/>
<path d="M2908 1876 c-50 -18 -88 -43 -88 -59 0 -6 11 -25 24 -42 l24 -30 52
19 c41 15 57 16 76 7 42 -19 32 -57 -31 -115 -57 -52 -65 -74 -49 -133 5 -20
13 -23 54 -23 45 0 48 1 54 32 4 21 25 50 60 84 39 37 57 62 61 88 25 130
-100 221 -237 172z"/>
<path d="M2288 1809 c-43 -22 -44 -25 -23 -65 29 -57 19 -106 -37 -174 -15
-19 -28 -40 -28 -46 0 -16 75 -83 106 -94 40 -16 115 -11 160 9 86 39 137 142
114 233 -32 126 -181 196 -292 137z"/>
<path d="M2099 1762 c-15 -6 -123 -118 -212 -220 -58 -66 -53 -84 49 -197 l86
-95 -1 -251 c-2 -214 0 -255 14 -275 9 -14 24 -70 34 -125 l19 -100 -40 -152
-40 -152 18 -35 c38 -70 127 -78 169 -14 11 16 38 99 59 184 38 148 39 156 29
229 -6 42 -10 77 -9 79 2 1 17 -34 34 -78 l32 -80 -10 -123 c-15 -186 -15
-184 24 -223 40 -40 75 -44 123 -14 42 25 50 60 59 250 l6 155 -56 140 -56
139 0 158 0 159 53 -41 c63 -47 74 -48 237 -20 92 15 118 23 133 41 26 33 30
64 12 98 -23 46 -49 52 -152 35 -48 -7 -97 -14 -109 -14 -11 0 -52 24 -90 54
-107 83 -117 86 -247 86 l-113 0 -47 54 c-26 30 -47 57 -47 61 0 3 36 44 80
91 93 98 100 125 51 175 -29 28 -59 35 -92 21z"/>
<path d="M2912 1420 c-32 -30 -30 -82 4 -109 15 -12 38 -21 51 -21 32 0 73 42
73 75 0 35 -42 75 -78 75 -15 0 -38 -9 -50 -20z"/>
</g>
</svg>
