<?xml version="1.0" standalone="no"?>
<!DOCTYPE svg PUBLIC "-//W3C//DTD SVG 20010904//EN"
 "http://www.w3.org/TR/2001/REC-SVG-20010904/DTD/svg10.dtd">
<svg version="1.0" xmlns="http://www.w3.org/2000/svg"
 width="500.000000pt" height="314.000000pt" viewBox="0 0 500.000000 314.000000"
 preserveAspectRatio="xMidYMid meet">

<g transform="translate(0.000000,314.000000) scale(0.100000,-0.100000)"
fill="#000000" stroke="none">
<path d="M0 1570 l0 -1570 2500 0 2500 0 0 1570 0 1570 -2500 0 -2500 0 0
-1570z m2787 1390 c47 -17 53 -43 53 -235 l0 -175 33 -14 c67 -27 106 -101 92
-172 -7 -41 -54 -97 -95 -114 l-30 -12 0 -185 c0 -182 0 -184 -25 -208 -31
-32 -78 -33 -109 -2 -13 13 -25 28 -27 34 -10 30 -372 229 -383 211 -1 -2 -6
-16 -12 -33 -7 -23 -41 -52 -71 -61 -2 0 13 -54 32 -120 40 -134 39 -161 -7
-199 -37 -31 -83 -33 -121 -2 -25 19 -37 52 -93 247 -35 124 -67 226 -72 228
-35 12 -59 32 -72 59 -11 24 -22 33 -39 33 -14 0 -35 10 -48 22 -21 20 -23 29
-23 132 0 99 2 112 22 133 12 13 33 23 49 23 20 0 28 6 33 25 10 39 43 53 154
65 202 22 356 77 536 190 62 38 118 81 125 94 11 21 42 43 62 45 3 1 20 -4 36
-9z m337 -247 c5 -12 -11 -33 -56 -75 -65 -60 -84 -69 -95 -42 -4 10 13 35 53
75 60 60 87 72 98 42z m101 -318 c0 -18 -8 -20 -94 -23 -96 -3 -119 4 -108 33
6 13 22 15 104 13 90 -3 98 -5 98 -23z m-156 -249 c61 -61 70 -86 33 -86 -26
0 -136 115 -129 134 11 28 31 18 96 -48z m558 -1162 c98 -33 181 -118 214
-219 17 -54 15 -162 -4 -208 -17 -40 -43 -52 -34 -14 27 107 28 118 18 171
-21 112 -90 199 -187 236 -54 20 -71 20 -1153 20 l-1098 0 -62 -31 c-68 -34
-130 -101 -152 -166 -21 -59 -16 -170 8 -224 30 -66 86 -124 151 -156 l57 -28
1038 -3 c817 -2 1038 -5 1034 -15 -5 -16 -1936 -23 -2040 -7 -120 18 -205 78
-257 182 -26 54 -30 71 -30 147 1 123 42 207 133 270 93 63 24 60 1224 61 979
0 1097 -2 1140 -16z m-2090 -196 c13 -12 23 -29 23 -39 0 -25 -47 -59 -81 -59
-28 0 -29 -1 -29 -54 0 -44 4 -55 18 -59 9 -3 -8 -5 -38 -5 -30 0 -47 2 -37 5
15 4 17 18 17 113 0 95 -2 109 -17 113 -10 3 13 5 51 6 59 1 73 -2 93 -21z
m1942 -15 c-1 -21 -4 -63 -8 -93 -7 -53 -7 -54 -14 -20 -12 67 -17 137 -10
143 18 19 33 5 32 -30z m85 12 c-1 -11 -6 -51 -10 -90 l-8 -70 -7 45 c-4 25
-8 67 -8 93 -1 41 2 48 17 45 10 -2 16 -12 16 -23z m77 -50 c-4 -76 -19 -135
-20 -79 -1 17 -4 59 -8 94 -6 57 -5 62 13 58 17 -3 19 -11 15 -73z m-1641 29
c0 -8 -7 -14 -15 -14 -15 0 -21 21 -9 33 10 9 24 -2 24 -19z m1316 15 c10 -17
-13 -36 -27 -22 -12 12 -4 33 11 33 5 0 12 -5 16 -11z m-1058 -70 c15 -1 15
-2 0 -6 -15 -4 -18 -16 -18 -64 0 -62 11 -74 37 -41 13 15 13 15 4 -5 -13 -26
-30 -33 -53 -21 -14 7 -18 22 -18 68 0 41 -4 60 -12 61 -10 0 -10 2 0 6 6 2
12 15 12 28 0 35 24 38 28 3 2 -18 9 -28 20 -29z m-552 -7 c11 -7 34 -45 34
-56 0 -3 -23 -6 -51 -6 -49 0 -50 -1 -47 -27 2 -22 9 -29 31 -31 16 -2 35 2
43 9 8 6 14 7 14 1 0 -5 -13 -15 -29 -22 -23 -9 -34 -9 -53 1 -51 27 -61 69
-27 113 20 26 61 35 85 18z m219 -11 c0 -8 -6 -16 -12 -18 -7 -3 -13 3 -13 12
0 9 -4 14 -9 11 -4 -3 -6 -16 -4 -29 5 -27 -19 -57 -47 -57 -25 0 -50 -10 -50
-21 0 -5 18 -9 41 -9 56 0 79 -14 79 -50 0 -39 -24 -60 -70 -60 -22 0 -45 7
-54 16 -18 17 -21 50 -6 59 6 4 5 13 -3 26 -10 17 -9 22 6 33 15 12 15 15 2
26 -20 16 -19 39 1 61 21 24 139 23 139 0z m75 -45 c0 -42 4 -66 13 -69 6 -3
-6 -5 -28 -5 -22 0 -34 2 -27 5 7 3 12 26 12 63 0 37 -5 60 -12 63 -7 3 -1 6
15 6 27 1 27 0 27 -63z m159 37 l0 -28 -16 23 c-19 27 -66 31 -61 5 2 -9 18
-21 37 -28 85 -28 57 -98 -35 -87 -29 4 -34 8 -34 30 l0 25 24 -22 c26 -25 71
-26 71 -2 0 8 -13 19 -30 24 -42 13 -55 26 -55 52 0 30 7 35 57 35 40 0 43 -2
42 -27z m266 0 c0 -30 -19 -34 -23 -5 -4 25 -12 28 -30 10 -16 -16 -16 -105 1
-111 6 -3 -8 -5 -33 -5 -25 0 -39 2 -32 5 7 3 12 26 12 63 0 37 -5 60 -12 63
-7 3 16 5 52 4 60 -2 65 -4 65 -24z m141 19 c11 -7 34 -45 34 -56 0 -3 -23 -6
-51 -6 -49 0 -50 -1 -47 -27 2 -22 9 -29 31 -31 16 -2 35 2 43 9 8 6 14 7 14
1 0 -5 -13 -15 -29 -22 -23 -9 -34 -9 -53 1 -51 27 -61 69 -27 113 20 26 61
35 85 18z m242 -4 c7 -7 12 -36 12 -64 0 -42 4 -53 18 -57 9 -3 -5 -5 -33 -6
-27 0 -59 -1 -69 -1 -35 -2 -47 44 -16 61 8 4 27 10 43 14 21 4 27 11 27 30 0
20 -5 25 -25 25 -19 0 -24 -5 -22 -21 1 -12 -4 -24 -10 -26 -18 -7 -28 25 -13
42 15 18 71 20 88 3z m235 5 c-9 -3 -13 -35 -13 -113 0 -77 4 -110 13 -113 6
-3 -6 -5 -28 -5 -22 0 -34 2 -27 5 7 3 12 24 12 54 0 46 -1 48 -22 40 -43 -16
-97 20 -98 65 0 12 9 33 20 47 19 24 27 26 88 25 37 0 61 -3 55 -5z m87 -58
c0 -56 3 -65 18 -65 10 0 23 5 30 12 16 16 16 105 0 111 -7 3 -1 6 15 6 27 1
27 0 27 -63 0 -42 4 -66 13 -70 11 -4 -5 -6 -87 -7 -39 -1 -48 11 -54 73 -3
29 -10 56 -16 60 -6 4 4 8 22 8 l32 0 0 -65z m190 1 c0 -42 4 -66 13 -69 6 -3
-8 -5 -33 -5 -25 0 -39 2 -32 5 7 3 12 26 12 63 0 37 -5 60 -12 63 -7 3 2 6
20 6 l32 1 0 -64z m-1782 31 c6 -7 14 -32 18 -55 4 -29 12 -42 22 -42 10 0 13
-3 6 -10 -15 -15 -54 0 -58 24 -18 86 -13 114 12 83z m1942 -87 c0 -21 -24
-28 -35 -10 -8 14 3 30 21 30 8 0 14 -9 14 -20z m80 0 c0 -11 -7 -20 -15 -20
-8 0 -15 9 -15 20 0 11 7 20 15 20 8 0 15 -9 15 -20z m85 -7 c0 -15 36 -56
114 -131 74 -69 112 -112 107 -120 -4 -7 -30 -12 -61 -12 l-54 0 29 -81 c17
-44 30 -86 30 -94 0 -17 -98 -51 -111 -38 -5 5 -22 46 -37 92 l-28 82 -42 -30
c-49 -36 -62 -38 -62 -10 0 28 49 349 55 359 2 4 17 7 32 6 22 -1 28 -6 28
-23z"/>
<path d="M2736 2894 c-3 -9 -6 -235 -6 -503 0 -418 2 -490 15 -507 15 -19 15
-19 30 0 13 17 15 89 15 507 0 268 -3 494 -6 503 -3 9 -14 16 -24 16 -10 0
-21 -7 -24 -16z"/>
<path d="M2628 2806 l-48 -29 0 -382 0 -383 48 -31 47 -30 3 219 c1 120 1 319
0 442 l-3 224 -47 -30z"/>
<path d="M2466 2710 c-63 -37 -239 -95 -333 -111 l-73 -12 0 -193 0 -192 43
-7 c95 -15 236 -58 324 -100 l93 -44 0 345 c0 189 -1 344 -2 343 -2 0 -25 -13
-52 -29z"/>
<path d="M1934 2567 c-2 -7 -3 -89 -2 -182 l3 -170 33 -3 32 -3 0 185 0 186
-30 0 c-17 0 -33 -6 -36 -13z"/>
<path d="M1832 2492 c-9 -6 -12 -34 -10 -103 3 -89 4 -94 26 -97 22 -3 22 -2
22 102 0 107 -4 119 -38 98z"/>
<path d="M2840 2395 c0 -52 3 -95 8 -95 36 0 73 69 64 117 -4 23 -48 73 -63
73 -5 0 -9 -43 -9 -95z"/>
<path d="M2020 2143 c0 -5 26 -100 58 -212 62 -216 74 -238 120 -220 32 12 29
39 -32 244 -47 159 -56 180 -77 186 -34 10 -69 10 -69 2z"/>
<path d="M2170 2127 c0 -2 5 -18 11 -36 9 -24 16 -31 33 -29 21 3 34 34 19 48
-9 8 -63 23 -63 17z"/>
<path d="M1450 750 c0 -43 3 -50 19 -50 41 0 68 59 39 88 -7 7 -22 12 -35 12
-21 0 -23 -4 -23 -50z"/>
<path d="M1647 694 c-4 -4 -7 -16 -7 -26 0 -13 8 -18 31 -18 26 0 30 3 27 23
-3 22 -36 36 -51 21z"/>
<path d="M1805 681 c-10 -34 4 -63 28 -59 18 2 22 10 22 38 0 28 -4 36 -22 38
-14 2 -23 -3 -28 -17z"/>
<path d="M1791 531 c-23 -41 50 -69 95 -37 30 23 7 50 -44 54 -32 2 -43 -1
-51 -17z"/>
<path d="M2507 694 c-4 -4 -7 -16 -7 -26 0 -13 8 -18 31 -18 26 0 30 3 27 23
-3 22 -36 36 -51 21z"/>
<path d="M2764 630 c-28 -11 -39 -39 -18 -47 19 -7 47 19 42 40 -2 10 -9 12
-24 7z"/>
<path d="M2924 676 c-3 -13 -4 -38 -2 -57 2 -27 8 -35 27 -37 31 -5 51 21 51
63 0 37 -15 55 -47 55 -15 0 -24 -7 -29 -24z"/>
<path d="M3600 553 c0 -4 -9 -64 -20 -133 -27 -171 -28 -167 15 -134 19 14 40
24 47 21 7 -2 26 -44 42 -91 28 -84 30 -87 55 -81 14 4 29 10 34 14 4 4 -6 47
-23 95 -16 49 -27 92 -24 97 3 5 26 9 52 9 l47 0 -85 86 c-87 87 -140 132
-140 117z"/>
</g>
</svg>
