<?xml version="1.0" standalone="no"?>
<!DOCTYPE svg PUBLIC "-//W3C//DTD SVG 20010904//EN"
 "http://www.w3.org/TR/2001/REC-SVG-20010904/DTD/svg10.dtd">
<svg version="1.0" xmlns="http://www.w3.org/2000/svg"
 width="500.000000pt" height="303.000000pt" viewBox="0 0 500.000000 303.000000"
 preserveAspectRatio="xMidYMid meet">

<g transform="translate(0.000000,303.000000) scale(0.100000,-0.100000)"
fill="#000000" stroke="none">
<path d="M2724 2919 c-12 -6 -26 -21 -32 -34 -14 -30 -217 -156 -324 -201 -93
-40 -254 -79 -368 -89 -89 -9 -108 -17 -122 -56 -7 -21 -16 -29 -34 -29 -14 0
-36 -11 -49 -25 -24 -23 -25 -31 -25 -133 0 -101 2 -110 23 -130 13 -12 35
-22 49 -22 20 0 29 -7 37 -30 7 -21 22 -36 45 -45 39 -16 30 6 116 -292 53
-188 54 -189 91 -208 56 -29 125 0 143 62 5 14 -7 69 -29 144 -29 97 -33 124
-23 130 7 5 16 9 20 9 14 0 48 44 48 62 0 26 14 23 125 -31 126 -61 263 -151
279 -182 25 -50 107 -50 133 1 9 17 13 80 13 201 l0 177 30 12 c42 17 88 73
96 115 12 67 -34 150 -98 174 l-28 11 0 179 c0 172 -1 181 -22 205 -27 30 -64
39 -94 25z m60 -65 c3 -9 6 -237 6 -509 0 -426 -2 -494 -15 -505 -12 -10 -18
-10 -30 0 -13 11 -15 80 -15 515 0 276 3 505 7 508 12 13 41 7 47 -9z m-106
-724 l-3 -219 -47 29 -48 30 0 384 0 384 48 31 47 30 3 -225 c1 -124 1 -324 0
-444z m-158 225 l0 -345 -67 34 c-87 43 -198 80 -307 102 l-86 17 0 192 0 192
90 17 c101 18 214 57 305 104 33 17 61 31 63 32 1 0 2 -155 2 -345z m-520 0
l0 -185 -28 0 c-49 0 -52 11 -52 185 0 174 3 185 52 185 l28 0 0 -185z m-130
-1 c0 -104 0 -105 -22 -102 -22 3 -23 8 -26 97 -2 69 1 97 10 103 34 21 38 9
38 -98z m1007 81 c34 -24 47 -76 29 -118 -12 -30 -41 -57 -60 -57 -3 0 -6 43
-6 95 0 52 3 95 8 95 4 0 17 -7 29 -15z m-767 -342 c12 -13 110 -358 110 -387
0 -38 -43 -57 -69 -30 -16 16 -131 390 -131 425 0 13 77 6 90 -8z m123 -23
c15 -14 2 -45 -19 -48 -17 -2 -24 5 -33 29 -6 18 -11 34 -11 36 0 6 54 -9 63
-17z"/>
<path d="M3027 2632 c-59 -60 -68 -78 -41 -89 19 -7 134 103 134 129 0 34 -35
18 -93 -40z"/>
<path d="M3023 2365 c-11 -29 12 -36 108 -33 86 3 94 5 94 23 0 18 -8 20 -98
23 -82 2 -98 0 -104 -13z"/>
<path d="M2973 2154 c-7 -19 103 -134 129 -134 33 0 19 34 -39 92 -59 60 -79
69 -90 42z"/>
<path d="M1350 943 c-91 -32 -159 -95 -200 -185 -14 -32 -20 -66 -20 -129 0
-76 4 -93 31 -147 37 -74 100 -133 178 -164 l56 -23 1029 0 c807 0 1030 3
1033 12 4 10 -217 13 -1034 15 l-1038 3 -57 28 c-230 113 -234 434 -6 546 l63
31 1115 -2 1115 -3 53 -29 c121 -68 182 -211 148 -346 -9 -35 -14 -65 -11 -68
12 -12 29 21 41 79 31 149 -45 301 -183 370 l-48 24 -1110 2 c-990 2 -1115 1
-1155 -14z"/>
<path d="M1398 763 c8 -3 12 -36 12 -113 0 -95 -2 -109 -17 -113 -10 -3 7 -5
37 -5 30 0 47 2 38 5 -14 4 -18 15 -18 59 l0 55 33 -3 c30 -3 32 -5 35 -48 4
-49 16 -70 40 -70 12 0 13 3 4 12 -7 7 -12 29 -12 50 0 26 -6 41 -18 49 -18
11 -17 13 5 35 29 29 29 39 -2 69 -21 22 -33 25 -87 24 -35 0 -57 -3 -50 -6z
m110 -15 c7 -7 12 -24 12 -38 0 -32 -17 -50 -47 -50 -21 0 -23 4 -23 50 0 46
2 50 23 50 13 0 28 -5 35 -12z"/>
<path d="M3447 763 c-5 -8 10 -150 17 -168 3 -5 5 8 5 30 1 22 4 64 7 93 6 43
4 52 -9 52 -9 0 -18 -3 -20 -7z"/>
<path d="M3530 748 c0 -13 3 -54 7 -93 l7 -70 7 50 c13 89 11 135 -6 135 -9 0
-15 -9 -15 -22z"/>
<path d="M3616 762 c-3 -5 -3 -47 1 -93 6 -70 8 -78 14 -49 13 63 15 143 2
147 -6 2 -14 0 -17 -5z"/>
<path d="M1970 725 c0 -8 7 -15 15 -15 8 0 15 7 15 15 0 8 -7 15 -15 15 -8 0
-15 -7 -15 -15z"/>
<path d="M3283 728 c2 -7 10 -13 17 -13 7 0 15 6 18 13 2 7 -5 12 -18 12 -13
0 -20 -5 -17 -12z"/>
<path d="M2223 723 c-7 -3 -13 -16 -13 -29 0 -13 -6 -24 -12 -24 -10 0 -10 -2
-1 -8 6 -4 13 -34 15 -67 3 -59 4 -60 32 -60 16 0 30 6 32 13 1 7 0 8 -3 2 -2
-5 -11 -10 -19 -10 -10 0 -14 15 -14 59 0 48 3 60 18 64 15 4 15 5 0 6 -11 1
-18 11 -20 29 -2 18 -8 27 -15 25z"/>
<path d="M1621 644 c-12 -15 -21 -34 -21 -44 0 -24 38 -70 58 -70 14 0 14 1 0
13 -8 6 -18 22 -21 35 -5 21 -2 22 44 22 41 0 49 3 49 18 0 51 -75 69 -109 26z
m79 -9 c0 -21 -5 -25 -30 -25 -22 0 -30 5 -30 18 0 25 9 32 37 32 18 0 23 -5
23 -25z"/>
<path d="M1784 644 c-15 -22 -15 -26 -1 -47 14 -21 13 -24 -1 -34 -14 -9 -15
-15 -6 -29 8 -13 8 -26 1 -41 -15 -34 15 -63 62 -62 l36 2 -39 6 c-79 12 -71
71 11 71 50 0 65 -19 43 -54 -12 -19 -12 -20 3 -7 10 7 17 24 17 37 0 36 -26
54 -77 54 -51 0 -57 23 -7 28 43 5 67 31 60 64 -6 30 8 39 18 11 5 -12 10 -13
17 -6 20 20 0 30 -61 31 -53 1 -62 -2 -76 -24z m71 -24 c0 -29 -4 -36 -22 -38
-17 -3 -24 3 -29 22 -9 37 2 58 28 54 19 -2 23 -9 23 -38z"/>
<path d="M1958 663 c7 -3 12 -26 12 -63 0 -37 -5 -60 -12 -63 -7 -3 5 -5 27
-5 22 0 34 2 28 5 -9 3 -13 27 -13 69 0 63 0 64 -27 63 -16 0 -22 -3 -15 -6z"/>
<path d="M2072 658 c-28 -28 -10 -60 41 -72 32 -8 47 -34 26 -47 -9 -6 -10 -9
-2 -9 17 0 34 35 27 53 -3 9 -23 23 -45 31 -42 17 -53 46 -17 46 12 0 30 -8
41 -17 19 -17 19 -17 16 2 -5 24 -67 33 -87 13z"/>
<path d="M2318 663 c7 -3 12 -26 12 -63 0 -37 -5 -60 -12 -63 -7 -3 5 -5 27
-5 22 0 34 2 28 5 -17 6 -17 95 -1 111 18 18 26 15 30 -10 4 -30 22 -30 26 0
4 27 -23 40 -49 24 -11 -7 -20 -8 -24 -2 -3 6 -16 10 -28 9 -12 0 -16 -3 -9
-6z"/>
<path d="M2481 644 c-12 -15 -21 -34 -21 -44 0 -24 38 -70 58 -70 14 0 14 1 0
13 -8 6 -18 22 -21 35 -5 21 -2 22 44 22 41 0 49 3 49 18 0 51 -75 69 -109 26z
m79 -9 c0 -21 -5 -25 -30 -25 -22 0 -30 5 -30 18 0 25 9 32 37 32 18 0 23 -5
23 -25z"/>
<path d="M2720 655 c-14 -17 -5 -49 13 -42 6 2 11 14 9 25 -3 18 2 22 22 22
24 0 26 -3 25 -42 -1 -24 -3 -51 -6 -60 -5 -19 -38 -25 -47 -9 -9 14 4 39 22
44 13 4 12 5 -4 6 -11 0 -29 -5 -40 -13 -15 -12 -17 -18 -8 -33 13 -21 60 -29
79 -13 9 7 15 8 20 0 3 -5 16 -9 28 -9 17 1 18 2 5 6 -14 3 -18 15 -18 53 0
31 -6 54 -16 64 -20 20 -68 21 -84 1z"/>
<path d="M2904 644 c-13 -12 -24 -32 -24 -42 0 -26 37 -72 58 -72 14 0 13 2
-2 13 -19 14 -26 82 -12 106 9 15 49 14 64 -1 21 -21 15 -85 -10 -103 l-23
-17 23 7 c21 6 22 3 22 -43 0 -31 -5 -52 -12 -55 -7 -3 5 -5 27 -5 22 0 34 2
28 5 -9 3 -13 36 -13 113 0 78 4 110 13 113 6 2 -17 5 -52 5 -54 0 -68 -4 -87
-24z"/>
<path d="M3087 663 c6 -5 13 -35 15 -68 2 -44 7 -61 18 -63 13 -2 14 9 10 65
-5 64 -7 68 -30 71 -15 2 -20 0 -13 -5z"/>
<path d="M3178 663 c17 -7 16 -98 -2 -116 -12 -12 -8 -14 27 -15 23 0 36 2 30
5 -9 3 -13 27 -13 69 0 63 0 64 -27 63 -16 0 -22 -3 -15 -6z"/>
<path d="M3278 664 c7 -4 12 -27 12 -64 0 -37 -5 -60 -12 -63 -7 -3 5 -6 27
-6 22 0 35 3 28 7 -6 4 -13 34 -15 67 -3 56 -5 60 -28 62 -14 1 -19 0 -12 -3z"/>
<path d="M2050 559 c0 -23 4 -26 33 -27 29 -1 30 0 12 10 -11 7 -25 19 -32 27
-11 14 -12 12 -13 -10z"/>
<path d="M3450 551 c0 -12 6 -21 16 -21 9 0 14 7 12 17 -5 25 -28 28 -28 4z"/>
<path d="M3530 550 c0 -11 7 -20 15 -20 8 0 15 9 15 20 0 11 -7 20 -15 20 -8
0 -15 -9 -15 -20z"/>
<path d="M3603 563 c-13 -2 -23 -7 -23 -11 0 -4 -11 -79 -25 -167 -35 -229
-35 -230 37 -174 21 17 40 30 42 28 2 -2 16 -40 31 -84 16 -44 32 -84 36 -89
8 -9 109 21 109 33 0 4 -13 46 -29 94 l-30 87 54 0 c31 0 57 5 61 12 5 8 -34
52 -109 123 -82 77 -117 117 -117 133 0 12 -3 21 -7 21 -5 -1 -18 -4 -30 -6z
m127 -157 l95 -96 -47 0 c-26 0 -49 -4 -52 -9 -3 -4 8 -50 25 -100 17 -51 29
-94 27 -96 -3 -3 -18 -8 -35 -11 l-31 -6 -29 87 c-15 48 -33 90 -40 92 -7 3
-28 -7 -48 -22 -43 -33 -42 -38 -15 139 11 71 20 131 20 133 0 13 47 -27 130
-111z"/>
<path d="M1706 545 c-11 -8 -15 -15 -9 -15 6 0 16 7 23 15 16 19 11 19 -14 0z"/>
<path d="M2566 545 c-11 -8 -15 -15 -9 -15 6 0 16 7 23 15 16 19 11 19 -14 0z"/>
</g>
</svg>
